<!DOCTYPE svg PUBLIC "-//W3C//DTD SVG 1.1//EN" "http://www.w3.org/Graphics/SVG/1.1/DTD/svg11.dtd">

<!-- Uploaded to: SVG Repo, www.svgrepo.com, Transformed by: SVG Repo Mixer Tools -->
<svg width="800px" height="800px" viewBox="0 0 24 24" xmlns:rdf="http://www.w3.org/1999/02/22-rdf-syntax-ns#" xmlns="http://www.w3.org/2000/svg" version="1.1" xmlns:cc="http://creativecommons.org/ns#" xmlns:dc="http://purl.org/dc/elements/1.1/" fill="#000000">

<g id="SVGRepo_bgCarrier" stroke-width="0"/>

<g id="SVGRepo_tracerCarrier" stroke-linecap="round" stroke-linejoin="round"/>

<g id="SVGRepo_iconCarrier"> <g transform="translate(0 -1028.4)"> <path d="m5 1030.4c-1.1046 0-2 0.9-2 2v8 4 6c0 1.1 0.8954 2 2 2h14c1.105 0 2-0.9 2-2v-6-4-4-4c0-1.1-0.895-2-2-2h-4-10z" fill="#56bddb"/> <g fill="#057093"> <path d="m6 1028.4c-0.5523 0-1 0.4-1 1v3c0 0.5 0.4477 1 1 1s1-0.5 1-1v-3c0-0.6-0.4477-1-1-1zm4 0c-0.5523 0-1 0.4-1 1v3c0 0.5 0.4477 1 1 1 0.552 0 1-0.5 1-1v-3c0-0.6-0.448-1-1-1zm4 0c-0.552 0-1 0.4-1 1v3c0 0.5 0.448 1 1 1s1-0.5 1-1v-3c0-0.6-0.448-1-1-1zm4 0c-0.552 0-1 0.4-1 1v3c0 0.5 0.448 1 1 1s1-0.5 1-1v-3c0-0.6-0.448-1-1-1z"/> <rect height="1" width="12" y="1043.4" x="6"/> <rect height="1" width="12" y="1040.4" x="6"/> <rect height="1" width="12" y="1037.4" x="6"/> <rect transform="translate(0 1028.4)" height="1" width="4" y="18" x="6"/> </g> <path d="m5 1032.4c0 0.5 0.4477 1 1 1s1-0.5 1-1h-2zm4 0c0 0.5 0.4477 1 1 1 0.552 0 1-0.5 1-1h-2zm4 0c0 0.5 0.448 1 1 1s1-0.5 1-1h-2zm4 0c0 0.5 0.448 1 1 1s1-0.5 1-1h-2z" fill="#057093"/> <path d="m3 1049.4v1c0 1.1 0.8954 2 2 2h14c1.105 0 2-0.9 2-2v-1c0 1.1-0.895 2-2 2h-14c-1.1046 0-2-0.9-2-2z" fill="#a04f0b"/> <path transform="translate(0,-.9)" d="m3 1049.4v1c0 1.1 0.8954 2 2 2h14c1.105 0 2-0.9 2-2v-1c0 1.1-0.895 2-2 2h-14c-1.1046 0-2-0.9-2-2z" fill="#e5e5e5"/>  </g> </g>

</svg>